# Blender v2.80 (sub 45) OBJ File: 'Matlan-05.blend'
# www.blender.org
mtllib Matlan-05-d.mtl
o Cube_(1,_0,_1).001_Mesh_(1,_0,_1).001
v -6.421112 -6.421113 6.421112
v -6.421112 -6.023332 6.421112
v -6.421112 -6.421113 6.023332
v -6.421112 -6.023332 6.023332
v -6.023332 -6.421113 6.421112
v -6.023332 -6.023332 6.421112
v -6.023332 -6.421113 6.023332
v -6.023332 -6.023332 6.023332
v -4.643334 -4.643335 4.643334
v -4.643334 -4.245554 4.643334
v -4.643334 -4.643335 4.245554
v -4.643334 -4.245554 4.245554
v -4.245554 -4.643335 4.643334
v -4.245554 -4.245554 4.643334
v -4.245554 -4.643335 4.245554
v -4.245554 -4.245554 4.245554
v -2.865556 -2.865557 2.865556
v -2.865556 -2.467777 2.865556
v -2.865556 -2.865557 2.467776
v -2.865556 -2.467776 2.467776
v -2.467776 -2.865557 2.865556
v -2.467776 -2.467776 2.865556
v -2.467776 -2.865557 2.467775
v -2.467776 -2.467776 2.467775
v -1.087778 -1.087779 1.087779
v -1.087779 -0.689998 1.087778
v -1.087778 -1.087779 0.689998
v -1.087778 -0.689998 0.689998
v -0.689997 -1.087779 1.087778
v -0.689997 -0.689998 1.087779
v -0.689998 -1.087779 0.689998
v -0.689998 -0.689998 0.689998
v 0.690000 0.689999 -0.690000
v 0.690000 1.087780 -0.690000
v 0.690000 0.689999 -1.087779
v 0.690000 1.087780 -1.087780
v 1.087780 0.689999 -0.690000
v 1.087780 1.087780 -0.690000
v 1.087780 0.689999 -1.087779
v 1.087780 1.087780 -1.087779
v 2.467778 2.467778 -2.467779
v 2.467778 2.865557 -2.467778
v 2.467778 2.467778 -2.865559
v 2.467778 2.865559 -2.865559
v 2.865558 2.467778 -2.467779
v 2.865558 2.865559 -2.467780
v 2.865558 2.467778 -2.865559
v 2.865559 2.865559 -2.865559
v 4.245556 4.245556 -4.245557
v 4.245556 4.643334 -4.245557
v 4.245556 4.245557 -4.643338
v 4.245556 4.643337 -4.643337
v 4.643336 4.245557 -4.245558
v 4.643336 4.643337 -4.245557
v 4.643336 4.245557 -4.643338
v 4.643336 4.643337 -4.643338
v 6.023335 6.023332 -6.023335
v 6.023335 6.421115 -6.023334
v 6.023335 6.023333 -6.421116
v 6.023334 6.421114 -6.421115
v 6.421116 6.023333 -6.023334
v 6.421116 6.421114 -6.023335
v 6.421116 6.023333 -6.421114
v 6.421116 6.421114 -6.421114
v -6.464696 -6.464696 6.222222
v -6.464696 -6.222222 6.464696
v -6.464696 -5.979748 6.222222
v -6.464696 -6.222222 5.979748
v -6.222222 -6.464696 5.979748
v -6.222222 -5.979748 5.979748
v -5.979748 -6.222222 5.979748
v -5.979748 -6.464696 6.222222
v -5.979748 -5.979748 6.222222
v -5.979748 -6.222222 6.464696
v -6.222222 -6.464696 6.464696
v -6.222222 -5.979748 6.464696
v -4.686918 -4.686919 4.444444
v -4.686918 -4.444445 4.686918
v -4.686918 -4.201971 4.444444
v -4.686918 -4.444445 4.201970
v -4.444444 -4.686919 4.201970
v -4.444444 -4.201971 4.201970
v -4.201970 -4.444445 4.201970
v -4.201970 -4.686919 4.444444
v -4.201970 -4.201971 4.444444
v -4.201970 -4.444445 4.686918
v -4.444444 -4.686919 4.686918
v -4.444444 -4.201971 4.686918
v -2.909140 -2.909141 2.666667
v -2.909140 -2.666667 2.909140
v -2.909140 -2.424192 2.666666
v -2.909140 -2.666667 2.424193
v -2.666666 -2.909141 2.424192
v -2.666666 -2.424192 2.424192
v -2.424192 -2.666667 2.424192
v -2.424192 -2.909141 2.666667
v -2.424192 -2.424192 2.666666
v -2.424192 -2.666667 2.909141
v -2.666666 -2.909141 2.909141
v -2.666666 -2.424192 2.909141
v -1.131362 -1.131363 0.888888
v -1.131362 -0.888888 1.131361
v -1.131362 -0.646415 0.888888
v -1.131362 -0.888889 0.646414
v -0.888888 -1.131362 0.646414
v -0.888888 -0.646415 0.646414
v -0.646414 -0.888889 0.646413
v -0.646414 -1.131362 0.888888
v -0.646414 -0.646415 0.888888
v -0.646414 -0.888888 1.131361
v -0.888888 -1.131362 1.131361
v -0.888888 -0.646415 1.131361
v 0.646416 0.646417 -0.888888
v 0.646417 0.888890 -0.646415
v 0.646417 1.131363 -0.888889
v 0.646417 0.888890 -1.131362
v 0.888890 0.646417 -1.131362
v 0.888890 1.131363 -1.131363
v 1.131364 0.888890 -1.131362
v 1.131364 0.646417 -0.888889
v 1.131364 1.131363 -0.888889
v 1.131364 0.888890 -0.646415
v 0.888890 0.646417 -0.646415
v 0.888890 1.131363 -0.646415
v 2.424194 2.424195 -2.666668
v 2.424195 2.666668 -2.424195
v 2.424195 2.909142 -2.666668
v 2.424194 2.666668 -2.909142
v 2.666669 2.424195 -2.909142
v 2.666669 2.909142 -2.909142
v 2.909142 2.666668 -2.909143
v 2.909141 2.424195 -2.666669
v 2.909142 2.909142 -2.666669
v 2.909142 2.666668 -2.424194
v 2.666669 2.424195 -2.424195
v 2.666669 2.909141 -2.424194
v 4.201972 4.201972 -4.444445
v 4.201972 4.444446 -4.201972
v 4.201972 4.686920 -4.444445
v 4.201973 4.444447 -4.686919
v 4.444446 4.201972 -4.686921
v 4.444446 4.686920 -4.686919
v 4.686919 4.444447 -4.686921
v 4.686920 4.201972 -4.444447
v 4.686920 4.686920 -4.444446
v 4.686921 4.444447 -4.201971
v 4.444447 4.201972 -4.201972
v 4.444447 4.686920 -4.201971
v 5.979749 5.979749 -6.222225
v 5.979749 6.222222 -5.979751
v 5.979749 6.464697 -6.222225
v 5.979750 6.222222 -6.464700
v 6.222223 5.979749 -6.464698
v 6.222222 6.464697 -6.464699
v 6.464697 6.222222 -6.464698
v 6.464699 5.979749 -6.222225
v 6.464697 6.464697 -6.222225
v 6.464699 6.222222 -5.979750
v 6.222224 5.979749 -5.979751
v 6.222223 6.464697 -5.979751
v -6.556160 -6.222222 6.222222
v -6.222222 -6.222222 5.888283
v -5.888283 -6.222222 6.222222
v -6.222222 -6.222222 6.556161
v -6.222222 -6.556161 6.222222
v -6.222222 -5.888283 6.222222
v -4.778383 -4.444445 4.444444
v -4.444444 -4.444445 4.110505
v -4.110505 -4.444445 4.444444
v -4.444444 -4.444445 4.778383
v -4.444444 -4.778384 4.444444
v -4.444444 -4.110506 4.444444
v -3.000605 -2.666667 2.666666
v -2.666666 -2.666667 2.332728
v -2.332727 -2.666667 2.666666
v -2.666666 -2.666667 3.000606
v -2.666666 -3.000606 2.666666
v -2.666666 -2.332728 2.666666
v -1.222826 -0.888888 0.888888
v -0.888888 -0.888888 0.554950
v -0.554950 -0.888888 0.888887
v -0.888888 -0.888888 1.222826
v -0.888888 -1.222828 0.888887
v -0.888888 -0.554950 0.888887
v 0.554952 0.888890 -0.888889
v 0.888890 0.888890 -1.222828
v 1.222829 0.888890 -0.888889
v 0.888890 0.888890 -0.554951
v 0.888890 0.554952 -0.888889
v 0.888890 1.222828 -0.888890
v 2.332730 2.666668 -2.666669
v 2.666668 2.666668 -3.000607
v 3.000607 2.666668 -2.666669
v 2.666668 2.666668 -2.332729
v 2.666668 2.332730 -2.666669
v 2.666668 3.000606 -2.666669
v 4.110507 4.444447 -4.444447
v 4.444447 4.444447 -4.778386
v 4.778385 4.444447 -4.444447
v 4.444447 4.444447 -4.110507
v 4.444447 4.110507 -4.444447
v 4.444447 4.778384 -4.444447
v 5.888285 6.222223 -6.222225
v 6.222224 6.222223 -6.556165
v 6.556164 6.222223 -6.222225
v 6.222224 6.222223 -5.888286
v 6.222223 5.888284 -6.222224
v 6.222224 6.556162 -6.222225
vt 0.375000 0.000000
vt 0.500000 0.000000
vt 0.500000 0.125000
vt 0.375000 0.125000
vt 0.625000 0.000000
vt 0.625000 0.125000
vt 0.625000 0.250000
vt 0.500000 0.250000
vt 0.375000 0.250000
vt 0.500000 0.373264
vt 0.369792 0.369792
vt 0.630208 0.369792
vt 0.666667 0.458333
vt 0.500000 0.493056
vt 0.333333 0.458333
vt 0.500000 0.625000
vt 0.368056 0.625000
vt 0.631945 0.625000
vt 0.666667 0.791667
vt 0.500000 0.756944
vt 0.333333 0.791667
vt 0.500000 0.876736
vt 0.369792 0.880208
vt 0.630208 0.880208
vt 0.625000 1.000000
vt 0.500000 1.000000
vt 0.375000 1.000000
vt 0.125000 0.500000
vt 0.244792 0.494792
vt 0.248264 0.625000
vt 0.125000 0.625000
vt 0.244792 0.755208
vt 0.125000 0.750000
vt 0.755208 0.494792
vt 0.751736 0.625000
vt 0.875000 0.500000
vt 0.875000 0.625000
vt 0.875000 0.750000
vt 0.755208 0.755208
vt 0.375000 0.000000
vt 0.500000 0.000000
vt 0.500000 0.125000
vt 0.375000 0.125000
vt 0.625000 0.000000
vt 0.625000 0.125000
vt 0.625000 0.250000
vt 0.500000 0.250000
vt 0.375000 0.250000
vt 0.500000 0.373264
vt 0.369792 0.369792
vt 0.630208 0.369792
vt 0.666667 0.458333
vt 0.500000 0.493056
vt 0.333333 0.458333
vt 0.500000 0.625000
vt 0.368056 0.625000
vt 0.631945 0.625000
vt 0.666667 0.791667
vt 0.500000 0.756944
vt 0.333333 0.791667
vt 0.500000 0.876736
vt 0.369792 0.880208
vt 0.630208 0.880208
vt 0.625000 1.000000
vt 0.500000 1.000000
vt 0.375000 1.000000
vt 0.125000 0.500000
vt 0.244792 0.494792
vt 0.248264 0.625000
vt 0.125000 0.625000
vt 0.244792 0.755208
vt 0.125000 0.750000
vt 0.755208 0.494792
vt 0.751736 0.625000
vt 0.875000 0.500000
vt 0.875000 0.625000
vt 0.875000 0.750000
vt 0.755208 0.755208
vt 0.375000 0.000000
vt 0.500000 0.000000
vt 0.500000 0.125000
vt 0.375000 0.125000
vt 0.625000 0.000000
vt 0.625000 0.125000
vt 0.625000 0.250000
vt 0.500000 0.250000
vt 0.375000 0.250000
vt 0.500000 0.373264
vt 0.369792 0.369792
vt 0.630208 0.369792
vt 0.666667 0.458333
vt 0.500000 0.493056
vt 0.333333 0.458333
vt 0.500000 0.625000
vt 0.368056 0.625000
vt 0.631945 0.625000
vt 0.666667 0.791667
vt 0.500000 0.756944
vt 0.333333 0.791667
vt 0.500000 0.876736
vt 0.369792 0.880208
vt 0.630208 0.880208
vt 0.625000 1.000000
vt 0.500000 1.000000
vt 0.375000 1.000000
vt 0.125000 0.500000
vt 0.244792 0.494792
vt 0.248264 0.625000
vt 0.125000 0.625000
vt 0.244792 0.755208
vt 0.125000 0.750000
vt 0.755208 0.494792
vt 0.751736 0.625000
vt 0.875000 0.500000
vt 0.875000 0.625000
vt 0.875000 0.750000
vt 0.755208 0.755208
vt 0.375000 0.000000
vt 0.500000 0.000000
vt 0.500000 0.125000
vt 0.375000 0.125000
vt 0.625000 0.000000
vt 0.625000 0.125000
vt 0.625000 0.250000
vt 0.500000 0.250000
vt 0.375000 0.250000
vt 0.500000 0.373264
vt 0.369792 0.369792
vt 0.630208 0.369792
vt 0.666667 0.458333
vt 0.500000 0.493056
vt 0.333333 0.458333
vt 0.500000 0.625000
vt 0.368056 0.625000
vt 0.631945 0.625000
vt 0.666667 0.791667
vt 0.500000 0.756944
vt 0.333333 0.791667
vt 0.500000 0.876736
vt 0.369792 0.880208
vt 0.630208 0.880208
vt 0.625000 1.000000
vt 0.500000 1.000000
vt 0.375000 1.000000
vt 0.125000 0.500000
vt 0.244792 0.494792
vt 0.248264 0.625000
vt 0.125000 0.625000
vt 0.244792 0.755208
vt 0.125000 0.750000
vt 0.755208 0.494792
vt 0.751736 0.625000
vt 0.875000 0.500000
vt 0.875000 0.625000
vt 0.875000 0.750000
vt 0.755208 0.755208
vt 0.375000 0.000000
vt 0.500000 0.000000
vt 0.500000 0.125000
vt 0.375000 0.125000
vt 0.625000 0.000000
vt 0.625000 0.125000
vt 0.625000 0.250000
vt 0.500000 0.250000
vt 0.375000 0.250000
vt 0.500000 0.373264
vt 0.369792 0.369792
vt 0.630208 0.369792
vt 0.666667 0.458333
vt 0.500000 0.493056
vt 0.333333 0.458333
vt 0.500000 0.625000
vt 0.368056 0.625000
vt 0.631945 0.625000
vt 0.666667 0.791667
vt 0.500000 0.756944
vt 0.333333 0.791667
vt 0.500000 0.876736
vt 0.369792 0.880208
vt 0.630208 0.880208
vt 0.625000 1.000000
vt 0.500000 1.000000
vt 0.375000 1.000000
vt 0.125000 0.500000
vt 0.244792 0.494792
vt 0.248264 0.625000
vt 0.125000 0.625000
vt 0.244792 0.755208
vt 0.125000 0.750000
vt 0.755208 0.494792
vt 0.751736 0.625000
vt 0.875000 0.500000
vt 0.875000 0.625000
vt 0.875000 0.750000
vt 0.755208 0.755208
vt 0.375000 0.000000
vt 0.500000 0.000000
vt 0.500000 0.125000
vt 0.375000 0.125000
vt 0.625000 0.000000
vt 0.625000 0.125000
vt 0.625000 0.250000
vt 0.500000 0.250000
vt 0.375000 0.250000
vt 0.500000 0.373264
vt 0.369792 0.369792
vt 0.630208 0.369792
vt 0.666667 0.458333
vt 0.500000 0.493056
vt 0.333333 0.458333
vt 0.500000 0.625000
vt 0.368056 0.625000
vt 0.631945 0.625000
vt 0.666667 0.791667
vt 0.500000 0.756944
vt 0.333333 0.791667
vt 0.500000 0.876736
vt 0.369792 0.880208
vt 0.630208 0.880208
vt 0.625000 1.000000
vt 0.500000 1.000000
vt 0.375000 1.000000
vt 0.125000 0.500000
vt 0.244792 0.494792
vt 0.248264 0.625000
vt 0.125000 0.625000
vt 0.244792 0.755208
vt 0.125000 0.750000
vt 0.755208 0.494792
vt 0.751736 0.625000
vt 0.875000 0.500000
vt 0.875000 0.625000
vt 0.875000 0.750000
vt 0.755208 0.755208
vt 0.375000 0.000000
vt 0.500000 0.000000
vt 0.500000 0.125000
vt 0.375000 0.125000
vt 0.625000 0.000000
vt 0.625000 0.125000
vt 0.625000 0.250000
vt 0.500000 0.250000
vt 0.375000 0.250000
vt 0.500000 0.373264
vt 0.369792 0.369792
vt 0.630208 0.369792
vt 0.666667 0.458333
vt 0.500000 0.493056
vt 0.333333 0.458333
vt 0.500000 0.625000
vt 0.368056 0.625000
vt 0.631945 0.625000
vt 0.666667 0.791667
vt 0.500000 0.756944
vt 0.333333 0.791667
vt 0.500000 0.876736
vt 0.369792 0.880208
vt 0.630208 0.880208
vt 0.625000 1.000000
vt 0.500000 1.000000
vt 0.375000 1.000000
vt 0.125000 0.500000
vt 0.244792 0.494792
vt 0.248264 0.625000
vt 0.125000 0.625000
vt 0.244792 0.755208
vt 0.125000 0.750000
vt 0.755208 0.494792
vt 0.751736 0.625000
vt 0.875000 0.500000
vt 0.875000 0.625000
vt 0.875000 0.750000
vt 0.755208 0.755208
vt 0.375000 0.000000
vt 0.500000 0.000000
vt 0.500000 0.125000
vt 0.375000 0.125000
vt 0.625000 0.000000
vt 0.625000 0.125000
vt 0.625000 0.250000
vt 0.500000 0.250000
vt 0.375000 0.250000
vt 0.500000 0.373264
vt 0.369792 0.369792
vt 0.630208 0.369792
vt 0.666667 0.458333
vt 0.500000 0.493056
vt 0.333333 0.458333
vt 0.500000 0.625000
vt 0.368056 0.625000
vt 0.631945 0.625000
vt 0.666667 0.791667
vt 0.500000 0.756944
vt 0.333333 0.791667
vt 0.500000 0.876736
vt 0.369792 0.880208
vt 0.630208 0.880208
vt 0.625000 1.000000
vt 0.500000 1.000000
vt 0.375000 1.000000
vt 0.125000 0.500000
vt 0.244792 0.494792
vt 0.248264 0.625000
vt 0.125000 0.625000
vt 0.244792 0.755208
vt 0.125000 0.750000
vt 0.755208 0.494792
vt 0.751736 0.625000
vt 0.875000 0.500000
vt 0.875000 0.625000
vt 0.875000 0.750000
vt 0.755208 0.755208
vn -0.5773 -0.5773 0.5773
vn -0.7071 0.0000 0.7071
vn -1.0000 0.0000 0.0000
vn -0.7071 -0.7071 0.0000
vn -0.5773 0.5773 0.5773
vn -0.7071 0.7071 0.0000
vn -0.5773 0.5773 -0.5773
vn -0.7071 0.0000 -0.7071
vn -0.5773 -0.5773 -0.5773
vn 0.0000 0.0000 -1.0000
vn 0.0000 -0.7071 -0.7071
vn 0.0000 0.7071 -0.7071
vn 0.5773 0.5773 -0.5773
vn 0.7071 0.0000 -0.7071
vn 0.5773 -0.5773 -0.5773
vn 1.0000 0.0000 0.0000
vn 0.7071 -0.7071 0.0000
vn 0.7071 0.7071 0.0000
vn 0.5773 0.5773 0.5773
vn 0.7071 0.0000 0.7071
vn 0.5773 -0.5773 0.5773
vn 0.0000 0.0000 1.0000
vn 0.0000 -0.7071 0.7071
vn 0.0000 0.7071 0.7071
vn 0.0000 -1.0000 0.0000
vn 0.0000 1.0000 0.0000
usemtl Material_(1,_1,_1)
s 1
f 1/1/1 66/2/2 161/3/3 65/4/4
f 66/2/2 2/5/5 67/6/6 161/3/3
f 161/3/3 67/6/6 4/7/7 68/8/8
f 65/4/4 161/3/3 68/8/8 3/9/9
f 3/9/9 68/8/8 162/10/10 69/11/11
f 68/8/8 4/7/7 70/12/12 162/10/10
f 162/10/10 70/12/12 8/13/13 71/14/14
f 69/11/11 162/10/10 71/14/14 7/15/15
f 7/15/15 71/14/14 163/16/16 72/17/17
f 71/14/14 8/13/13 73/18/18 163/16/16
f 163/16/16 73/18/18 6/19/19 74/20/20
f 72/17/17 163/16/16 74/20/20 5/21/21
f 5/21/21 74/20/20 164/22/22 75/23/23
f 74/20/20 6/19/19 76/24/24 164/22/22
f 164/22/22 76/24/24 2/25/5 66/26/2
f 75/23/23 164/22/22 66/26/2 1/27/1
f 3/28/9 69/29/11 165/30/25 65/31/4
f 69/29/11 7/15/15 72/17/17 165/30/25
f 165/30/25 72/17/17 5/21/21 75/32/23
f 65/31/4 165/30/25 75/32/23 1/33/1
f 8/13/13 70/34/12 166/35/26 73/18/18
f 70/34/12 4/36/7 67/37/6 166/35/26
f 166/35/26 67/37/6 2/38/5 76/39/24
f 73/18/18 166/35/26 76/39/24 6/19/19
usemtl Material_(2,_2,_2)
f 9/40/1 78/41/2 167/42/3 77/43/4
f 78/41/2 10/44/5 79/45/6 167/42/3
f 167/42/3 79/45/6 12/46/7 80/47/8
f 77/43/4 167/42/3 80/47/8 11/48/9
f 11/48/9 80/47/8 168/49/10 81/50/11
f 80/47/8 12/46/7 82/51/12 168/49/10
f 168/49/10 82/51/12 16/52/13 83/53/14
f 81/50/11 168/49/10 83/53/14 15/54/15
f 15/54/15 83/53/14 169/55/16 84/56/17
f 83/53/14 16/52/13 85/57/18 169/55/16
f 169/55/16 85/57/18 14/58/19 86/59/20
f 84/56/17 169/55/16 86/59/20 13/60/21
f 13/60/21 86/59/20 170/61/22 87/62/23
f 86/59/20 14/58/19 88/63/24 170/61/22
f 170/61/22 88/63/24 10/64/5 78/65/2
f 87/62/23 170/61/22 78/65/2 9/66/1
f 11/67/9 81/68/11 171/69/25 77/70/4
f 81/68/11 15/54/15 84/56/17 171/69/25
f 171/69/25 84/56/17 13/60/21 87/71/23
f 77/70/4 171/69/25 87/71/23 9/72/1
f 16/52/13 82/73/12 172/74/26 85/57/18
f 82/73/12 12/75/7 79/76/6 172/74/26
f 172/74/26 79/76/6 10/77/5 88/78/24
f 85/57/18 172/74/26 88/78/24 14/58/19
usemtl Material_(3,_3,_3)
f 17/79/1 90/80/2 173/81/3 89/82/4
f 90/80/2 18/83/5 91/84/6 173/81/3
f 173/81/3 91/84/6 20/85/7 92/86/8
f 89/82/4 173/81/3 92/86/8 19/87/9
f 19/87/9 92/86/8 174/88/10 93/89/11
f 92/86/8 20/85/7 94/90/12 174/88/10
f 174/88/10 94/90/12 24/91/13 95/92/14
f 93/89/11 174/88/10 95/92/14 23/93/15
f 23/93/15 95/92/14 175/94/16 96/95/17
f 95/92/14 24/91/13 97/96/18 175/94/16
f 175/94/16 97/96/18 22/97/19 98/98/20
f 96/95/17 175/94/16 98/98/20 21/99/21
f 21/99/21 98/98/20 176/100/22 99/101/23
f 98/98/20 22/97/19 100/102/24 176/100/22
f 176/100/22 100/102/24 18/103/5 90/104/2
f 99/101/23 176/100/22 90/104/2 17/105/1
f 19/106/9 93/107/11 177/108/25 89/109/4
f 93/107/11 23/93/15 96/95/17 177/108/25
f 177/108/25 96/95/17 21/99/21 99/110/23
f 89/109/4 177/108/25 99/110/23 17/111/1
f 24/91/13 94/112/12 178/113/26 97/96/18
f 94/112/12 20/114/7 91/115/6 178/113/26
f 178/113/26 91/115/6 18/116/5 100/117/24
f 97/96/18 178/113/26 100/117/24 22/97/19
usemtl Material_(4,_4,_4)
f 25/118/1 102/119/2 179/120/3 101/121/4
f 102/119/2 26/122/5 103/123/6 179/120/3
f 179/120/3 103/123/6 28/124/7 104/125/8
f 101/121/4 179/120/3 104/125/8 27/126/9
f 27/126/9 104/125/8 180/127/10 105/128/11
f 104/125/8 28/124/7 106/129/12 180/127/10
f 180/127/10 106/129/12 32/130/13 107/131/14
f 105/128/11 180/127/10 107/131/14 31/132/15
f 31/132/15 107/131/14 181/133/16 108/134/17
f 107/131/14 32/130/13 109/135/18 181/133/16
f 181/133/16 109/135/18 30/136/19 110/137/20
f 108/134/17 181/133/16 110/137/20 29/138/21
f 29/138/21 110/137/20 182/139/22 111/140/23
f 110/137/20 30/136/19 112/141/24 182/139/22
f 182/139/22 112/141/24 26/142/5 102/143/2
f 111/140/23 182/139/22 102/143/2 25/144/1
f 27/145/9 105/146/11 183/147/25 101/148/4
f 105/146/11 31/132/15 108/134/17 183/147/25
f 183/147/25 108/134/17 29/138/21 111/149/23
f 101/148/4 183/147/25 111/149/23 25/150/1
f 32/130/13 106/151/12 184/152/26 109/135/18
f 106/151/12 28/153/7 103/154/6 184/152/26
f 184/152/26 103/154/6 26/155/5 112/156/24
f 109/135/18 184/152/26 112/156/24 30/136/19
usemtl Material_(5,_5,_5)
f 33/157/1 114/158/2 185/159/3 113/160/4
f 114/158/2 34/161/5 115/162/6 185/159/3
f 185/159/3 115/162/6 36/163/7 116/164/8
f 113/160/4 185/159/3 116/164/8 35/165/9
f 35/165/9 116/164/8 186/166/10 117/167/11
f 116/164/8 36/163/7 118/168/12 186/166/10
f 186/166/10 118/168/12 40/169/13 119/170/14
f 117/167/11 186/166/10 119/170/14 39/171/15
f 39/171/15 119/170/14 187/172/16 120/173/17
f 119/170/14 40/169/13 121/174/18 187/172/16
f 187/172/16 121/174/18 38/175/19 122/176/20
f 120/173/17 187/172/16 122/176/20 37/177/21
f 37/177/21 122/176/20 188/178/22 123/179/23
f 122/176/20 38/175/19 124/180/24 188/178/22
f 188/178/22 124/180/24 34/181/5 114/182/2
f 123/179/23 188/178/22 114/182/2 33/183/1
f 35/184/9 117/185/11 189/186/25 113/187/4
f 117/185/11 39/171/15 120/173/17 189/186/25
f 189/186/25 120/173/17 37/177/21 123/188/23
f 113/187/4 189/186/25 123/188/23 33/189/1
f 40/169/13 118/190/12 190/191/26 121/174/18
f 118/190/12 36/192/7 115/193/6 190/191/26
f 190/191/26 115/193/6 34/194/5 124/195/24
f 121/174/18 190/191/26 124/195/24 38/175/19
usemtl Material_(6,_6,_6)
f 41/196/1 126/197/2 191/198/3 125/199/4
f 126/197/2 42/200/5 127/201/6 191/198/3
f 191/198/3 127/201/6 44/202/7 128/203/8
f 125/199/4 191/198/3 128/203/8 43/204/9
f 43/204/9 128/203/8 192/205/10 129/206/11
f 128/203/8 44/202/7 130/207/12 192/205/10
f 192/205/10 130/207/12 48/208/13 131/209/14
f 129/206/11 192/205/10 131/209/14 47/210/15
f 47/210/15 131/209/14 193/211/16 132/212/17
f 131/209/14 48/208/13 133/213/18 193/211/16
f 193/211/16 133/213/18 46/214/19 134/215/20
f 132/212/17 193/211/16 134/215/20 45/216/21
f 45/216/21 134/215/20 194/217/22 135/218/23
f 134/215/20 46/214/19 136/219/24 194/217/22
f 194/217/22 136/219/24 42/220/5 126/221/2
f 135/218/23 194/217/22 126/221/2 41/222/1
f 43/223/9 129/224/11 195/225/25 125/226/4
f 129/224/11 47/210/15 132/212/17 195/225/25
f 195/225/25 132/212/17 45/216/21 135/227/23
f 125/226/4 195/225/25 135/227/23 41/228/1
f 48/208/13 130/229/12 196/230/26 133/213/18
f 130/229/12 44/231/7 127/232/6 196/230/26
f 196/230/26 127/232/6 42/233/5 136/234/24
f 133/213/18 196/230/26 136/234/24 46/214/19
usemtl Material_(7,_7,_7)
f 49/235/1 138/236/2 197/237/3 137/238/4
f 138/236/2 50/239/5 139/240/6 197/237/3
f 197/237/3 139/240/6 52/241/7 140/242/8
f 137/238/4 197/237/3 140/242/8 51/243/9
f 51/243/9 140/242/8 198/244/10 141/245/11
f 140/242/8 52/241/7 142/246/12 198/244/10
f 198/244/10 142/246/12 56/247/13 143/248/14
f 141/245/11 198/244/10 143/248/14 55/249/15
f 55/249/15 143/248/14 199/250/16 144/251/17
f 143/248/14 56/247/13 145/252/18 199/250/16
f 199/250/16 145/252/18 54/253/19 146/254/20
f 144/251/17 199/250/16 146/254/20 53/255/21
f 53/255/21 146/254/20 200/256/22 147/257/23
f 146/254/20 54/253/19 148/258/24 200/256/22
f 200/256/22 148/258/24 50/259/5 138/260/2
f 147/257/23 200/256/22 138/260/2 49/261/1
f 51/262/9 141/263/11 201/264/25 137/265/4
f 141/263/11 55/249/15 144/251/17 201/264/25
f 201/264/25 144/251/17 53/255/21 147/266/23
f 137/265/4 201/264/25 147/266/23 49/267/1
f 56/247/13 142/268/12 202/269/26 145/252/18
f 142/268/12 52/270/7 139/271/6 202/269/26
f 202/269/26 139/271/6 50/272/5 148/273/24
f 145/252/18 202/269/26 148/273/24 54/253/19
usemtl Material_(8,_8,_8)
f 57/274/1 150/275/2 203/276/3 149/277/4
f 150/275/2 58/278/5 151/279/6 203/276/3
f 203/276/3 151/279/6 60/280/7 152/281/8
f 149/277/4 203/276/3 152/281/8 59/282/9
f 59/282/9 152/281/8 204/283/10 153/284/11
f 152/281/8 60/280/7 154/285/12 204/283/10
f 204/283/10 154/285/12 64/286/13 155/287/14
f 153/284/11 204/283/10 155/287/14 63/288/15
f 63/288/15 155/287/14 205/289/16 156/290/17
f 155/287/14 64/286/13 157/291/18 205/289/16
f 205/289/16 157/291/18 62/292/19 158/293/20
f 156/290/17 205/289/16 158/293/20 61/294/21
f 61/294/21 158/293/20 206/295/22 159/296/23
f 158/293/20 62/292/19 160/297/24 206/295/22
f 206/295/22 160/297/24 58/298/5 150/299/2
f 159/296/23 206/295/22 150/299/2 57/300/1
f 59/301/9 153/302/11 207/303/25 149/304/4
f 153/302/11 63/288/15 156/290/17 207/303/25
f 207/303/25 156/290/17 61/294/21 159/305/23
f 149/304/4 207/303/25 159/305/23 57/306/1
f 64/286/13 154/307/12 208/308/26 157/291/18
f 154/307/12 60/309/7 151/310/6 208/308/26
f 208/308/26 151/310/6 58/311/5 160/312/24
f 157/291/18 208/308/26 160/312/24 62/292/19
